<?xml version="1.0" standalone="no"?>
<!DOCTYPE svg PUBLIC "-//W3C//DTD SVG 1.1//EN" "http://www.w3.org/Graphics/SVG/1.1/DTD/svg11.dtd" >
<svg xmlns="http://www.w3.org/2000/svg">
<metadata></metadata>
<defs>
<font id="space_rangerregular" horiz-adv-x="1398" >
<font-face units-per-em="2048" ascent="1638" descent="-410" />
<missing-glyph horiz-adv-x="589" />
<glyph horiz-adv-x="2048" />
<glyph horiz-adv-x="2048" />
<glyph unicode="&#xd;" horiz-adv-x="1024" />
<glyph unicode=" "  horiz-adv-x="589" />
<glyph unicode="&#x09;" horiz-adv-x="589" />
<glyph unicode="&#xa0;" horiz-adv-x="589" />
<glyph unicode="!" horiz-adv-x="393" d="M61 0v272h271v-272h-271zM61 391v639h271v-639h-271z" />
<glyph unicode="&#x22;" horiz-adv-x="720" d="M61 631h109q27 0 55.5 16.5t52 41t39 52t15.5 52.5v237h-271v-399zM383 629h115q25 0 53.5 16.5t52 41t39.5 52t16 52.5v239h-276v-401z" />
<glyph unicode="#" horiz-adv-x="1413" d="M61 207v250h193v116h-193v250h193v207h270v-207h363v207h270v-207h195v-250h-195v-116h195v-250h-195v-207h-270v207h-363v-207h-270v207h-193zM524 457h363v116h-363v-116z" />
<glyph unicode="$" horiz-adv-x="1374" d="M61 514v270q0 41 7.5 85t24 80t44 58.5t68.5 22.5h340v270h276v-270h484v-270h-484v-119h361q33 0 58.5 -24.5t40.5 -62.5t23.5 -84t8.5 -87v-139q0 -39 -3 -82t-16.5 -79t-40 -59.5t-71.5 -23.5h-361v-272h-276v272h-475v272h475v119h-350q-20 6 -43 17.5t-42.5 28 t-33 36t-15.5 41.5zM356 702q0 -53 43 -61h146v119h-146q-25 -10 -32 -20.5t-11 -37.5zM821 272h152q23 6 30 20.5t11 37.5q0 23 -8 39t-33 22h-152v-119z" />
<glyph unicode="%" horiz-adv-x="1697" d="M61 600q0 -14 13.5 -33.5t25.5 -27.5q8 -10 22.5 -15.5t20.5 -5.5h473q12 0 26.5 8.5t27 20.5t20.5 26.5t8 26.5v350q0 12 -8 26.5t-20.5 27t-26.5 20.5t-27 8h-473q-12 0 -26.5 -8t-26.5 -20.5t-20.5 -26.5t-8.5 -27v-350zM252 692v158h260v-158h-260zM256 0h322 l860 1030h-326zM999 82q0 -14 13.5 -34t25.5 -28q8 -10 22.5 -15t20.5 -5h473q12 0 26.5 8t27 20.5t20.5 27t8 26.5v350q0 12 -8 26.5t-20.5 27t-26.5 20.5t-27 8h-473q-12 0 -26.5 -8t-26.5 -20.5t-20.5 -27t-8.5 -26.5v-350zM1190 174v158h260v-158h-260z" />
<glyph unicode="&#x26;" horiz-adv-x="1439" d="M61 86q6 -12 10.5 -24.5t12.5 -24.5t21.5 -21.5t35.5 -15.5h994q27 6 41 15.5t22 21.5t12 24.5t11 24.5v303h157v252h-901q-29 0 -37 20.5t-8 40.5q0 23 9.5 35.5t33.5 22.5h574v270h-824q-27 -6 -41 -15t-22 -21.5t-12.5 -25t-10.5 -24.5v-307q-39 -16 -56 -44t-22 -63 v-444zM348 324q0 23 8 44t37 21h494q27 -4 34 -23.5t7 -41.5q0 -18 -9.5 -30.5t-33.5 -23.5h-494q-25 10 -34 22.5t-9 31.5z" />
<glyph unicode="'" horiz-adv-x="393" d="M61 629v401h271v-239q0 -25 -15.5 -52.5t-39 -52t-52 -41t-55.5 -16.5h-109z" />
<glyph unicode="(" horiz-adv-x="690" d="M61 166v698q0 25 16.5 53.5t41 53t53.5 42t53 17.5h404v-270h-238q-27 0 -35 -15.5t-8 -39.5v-383q0 -23 8.5 -36.5t34.5 -13.5h238v-272h-404q-25 0 -53.5 16.5t-53 42t-41 54t-16.5 53.5z" />
<glyph unicode=")" horiz-adv-x="690" d="M61 0h404q23 0 51.5 16.5t53 42t42 54t17.5 53.5v698q0 25 -17.5 53.5t-42 53t-53.5 42t-51 17.5h-404v-270h238q23 0 30 -15.5t7 -39.5v-383q0 -23 -7 -36.5t-30 -13.5h-238v-272z" />
<glyph unicode="*" horiz-adv-x="520" d="M61 936l48 147l73 -45l-12 88h164l-10 -88l82 41l53 -147l-101 -17l70 -67l-127 -103l-49 91l-43 -91l-127 107l68 63z" />
<glyph unicode="+" horiz-adv-x="780" d="M61 391v250h207v205h246v-205h205v-250h-205v-209h-246v209h-207z" />
<glyph unicode="," horiz-adv-x="393" d="M61 -199v471h271v-309q0 -25 -15.5 -52.5t-39 -52t-52 -41t-55.5 -16.5h-109z" />
<glyph unicode="-" horiz-adv-x="780" d="M61 391v250h658v-250h-658z" />
<glyph unicode="." horiz-adv-x="393" d="M61 0v272h271v-272h-271z" />
<glyph unicode="/" horiz-adv-x="1304" d="M61 0h322l860 1030h-325z" />
<glyph unicode="0" d="M61 166q0 -14 8.5 -31.5t19.5 -36t25.5 -34t26.5 -23.5q14 -16 44 -28.5t40 -12.5h949q25 0 53 16.5t53 42t41 54t16 53.5v698q0 25 -16 53.5t-41 53t-53.5 42t-52.5 17.5h-949q-25 0 -53.5 -17.5t-53 -42t-41 -53t-16.5 -53.5v-698zM348 283v467h371zM670 281l374 469h7 v-469h-381z" />
<glyph unicode="1" horiz-adv-x="638" d="M61 760v270h517v-1030h-285v760h-232z" />
<glyph unicode="2" horiz-adv-x="1376" d="M61 0v383q0 41 8.5 87t25 84t41 62.5t54.5 24.5h783q43 8 43 61q-4 27 -11.5 37.5t-31.5 20.5h-901v270h1095q43 0 72 -22.5t46.5 -58.5t23.5 -80t6 -85v-270q-2 -23 -16.5 -42t-34 -35.5t-43 -28t-43.5 -17.5h-779q-25 -6 -33 -22.5t-8 -38.5v-58h949v-272h-1246z" />
<glyph unicode="3" horiz-adv-x="1361" d="M61 0v270h904q25 10 34 22.5t9 31.5q0 23 -8 44t-37 21h-902v252h824q27 0 33 20.5t6 40.5q0 23 -7.5 35.5t-29.5 22.5h-826v270h1069q27 -6 41.5 -16t21.5 -20.5t12 -24t12 -25.5v-307q43 -16 61 -44t22 -63v-444q-6 -12 -11 -25.5t-12 -23.5t-21.5 -20.5t-41.5 -16.5 h-1153z" />
<glyph unicode="4" horiz-adv-x="1392" d="M61 166l17 35q168 199 285.5 337t196.5 229t127 143.5t77 78t44.5 32.5t31.5 9h313v-614h178v-250h-178v-166h-262v166h-830zM621 414h247v256l-9 3l-3 1q-14 0 -27.5 -14.5t-23.5 -24.5z" />
<glyph unicode="5" horiz-adv-x="1374" d="M61 514v516h1244v-272h-949v-56q0 -53 43 -61h783q33 0 58.5 -24.5t40.5 -62.5t23.5 -84t8.5 -87v-139q0 -39 -3 -82t-16.5 -79t-40 -59.5t-71.5 -23.5h-1112v272h903q23 6 30 20.5t11 37.5q0 23 -8.5 39t-32.5 22h-778q-20 6 -43 17.5t-42.5 28t-33 36t-15.5 41.5z" />
<glyph unicode="6" d="M61 166q0 -25 16.5 -53.5t41 -53t53.5 -42t53 -17.5h955q29 0 57.5 16.5t51 41t35.5 53t13 55.5v235q0 39 -5 81t-19.5 77t-39 58.5t-63.5 23.5h-862v121h989v268h-1112q-25 0 -53.5 -17.5t-53 -42t-41 -53t-16.5 -53.5v-698zM348 281v112h653q45 -14 46 -65 q-2 -14 -6.5 -28.5t-10.5 -18.5h-682z" />
<glyph unicode="7" horiz-adv-x="1359" d="M61 0h447l790 762v268h-1237v-270h781z" />
<glyph unicode="8" horiz-adv-x="1363" d="M61 86q6 -12 10.5 -24.5t12.5 -24.5t21.5 -21.5t35.5 -15.5h1076q27 6 41 15.5t22 21.5t12 24.5t11 24.5v444q-4 35 -22.5 63t-61.5 44v307q-6 12 -10.5 24.5t-12.5 25t-22.5 21.5t-40.5 15h-908q-27 -6 -41 -15t-22 -21.5t-12.5 -25t-10.5 -24.5v-307q-39 -16 -56 -44 t-22 -63v-444zM348 324q0 23 8.5 44t36.5 21h572q29 0 37 -21.5t8 -43.5q0 -18 -9.5 -30.5t-33.5 -23.5h-576q-25 10 -34 22.5t-9 31.5zM432 702q0 23 9.5 35.5t33.5 22.5h414q23 -10 30 -22.5t7 -35.5q0 -20 -6.5 -40.5t-32.5 -20.5h-410q-29 0 -37 20.5t-8 40.5z" />
<glyph unicode="9" d="M61 0h1113q25 0 53 16.5t53 42t41 54t16 53.5v698q0 20 -16 49t-41 55.5t-53.5 44t-52.5 17.5h-955q-29 0 -57.5 -16.5t-51 -41t-36 -53t-13.5 -55.5v-235q0 -41 6.5 -83t20.5 -77t38.5 -57.5t61.5 -22.5h863v-121h-990v-268zM352 700q2 10 5 27.5t12 26.5h682v-117h-654 q-45 14 -45 63z" />
<glyph unicode=":" horiz-adv-x="393" d="M61 0v272h271v-272h-271zM61 391v273h271v-273h-271z" />
<glyph unicode=";" horiz-adv-x="393" d="M61 -199v471h271v-309q0 -25 -15.5 -52.5t-39 -52t-52 -41t-55.5 -16.5h-109zM61 391v273h271v-273h-271z" />
<glyph unicode="&#x3c;" horiz-adv-x="876" d="M61 510l431 -510h321l-430 510l432 520h-321z" />
<glyph unicode="=" horiz-adv-x="780" d="M61 207v250h658v-250h-658zM61 573v250h658v-250h-658z" />
<glyph unicode="&#x3e;" horiz-adv-x="876" d="M61 1030h322l432 -520l-430 -510h-322l431 510z" />
<glyph unicode="?" horiz-adv-x="1366" d="M61 760h902q25 -10 31.5 -20.5t11.5 -37.5q0 -53 -43 -61h-687q-35 0 -58 -23.5t-39.5 -60.5t-24 -81t-7.5 -83l1020 -2q20 6 44 17.5t43.5 28t34 36t16.5 41.5v270q0 41 -6.5 85t-24 80t-46 58.5t-71.5 22.5h-1096v-270zM152 0h276v272h-276v-272z" />
<glyph unicode="@" horiz-adv-x="1570" d="M61 -106q0 -25 16.5 -53.5t40 -54.5t52.5 -42t53 -16h877v272h-711q-27 0 -35 13.5t-8 35.5v656q2 25 10.5 40t34.5 15h803q23 -8 23 -53v-265q0 -23 -7.5 -36t-29.5 -13h-82v162q0 12 -8.5 26.5t-20.5 27t-26.5 20.5t-26.5 8h-473q-12 0 -26.5 -8t-27 -20.5t-20.5 -27 t-8 -26.5v-350q0 -14 13 -33.5t26 -28.5q8 -10 22.5 -15t20.5 -5h803q23 0 51 16.5t53 41t42 53t17 53.5v579q0 25 -17 53.5t-42 53t-53.5 41t-50.5 16.5h-1121q-25 0 -53.5 -17.5t-53 -42t-41 -53t-16.5 -53.5v-970zM651 297v158h260v-158h-260z" />
<glyph unicode="A" horiz-adv-x="1329" d="M31 0h340l151 166h477v-166h269v864q0 37 -21.5 68t-53.5 52.5t-70.5 33.5t-73.5 12h-91q-18 0 -43.5 -16.5t-66.5 -58.5t-105.5 -115.5t-161 -187t-231.5 -274.5t-319 -378zM729 414l184 221q10 10 23.5 24.5t28.5 14.5l3 -1l9 -3v-256h-248z" />
<glyph unicode="B" horiz-adv-x="1361" d="M61 0h1153q27 6 41.5 16.5t21.5 20.5t12 23.5t11 25.5v444q-4 35 -22 63t-61 44v307q-6 12 -11.5 25.5t-12.5 24t-21.5 20.5t-41.5 16h-1069v-270h826q23 -10 30 -22.5t7 -35.5q0 -20 -6.5 -40.5t-32.5 -20.5h-824v-641zM328 270v119h635q29 0 37 -21.5t8 -43.5 q0 -18 -9.5 -30.5t-33.5 -23.5h-637z" />
<glyph unicode="C" horiz-adv-x="1277" d="M61 166v698q0 25 16.5 53.5t41 53t53.5 42t53 17.5h992v-270h-826q-27 0 -35 -15.5t-8 -39.5v-383q0 -23 8.5 -36.5t34.5 -13.5h826v-272h-992q-25 0 -53.5 16.5t-53 42t-41 54t-16.5 53.5z" />
<glyph unicode="D" horiz-adv-x="1280" d="M61 0h994q23 0 51.5 16.5t53 42t42 54t17.5 53.5v698q0 25 -17.5 53.5t-42 53t-53.5 42t-51 17.5h-992v-270h826q23 0 30 -15.5t7 -39.5v-383q0 -23 -7.5 -36.5t-29.5 -13.5h-557v371h-271v-643z" />
<glyph unicode="E" horiz-adv-x="1361" d="M59 86v444q4 35 22.5 63t61.5 44v307q6 12 10.5 24.5t12.5 25t22.5 21.5t40.5 15h1069v-270h-825q-23 -10 -30 -22.5t-7 -35.5q0 -20 6.5 -40.5t32.5 -20.5h823v-252h-901q-29 0 -37 -21.5t-8 -43.5q0 -18 9.5 -30.5t33.5 -23.5h903v-270h-1153q-27 6 -41 15.5t-22 21.5 t-12 24.5t-11 24.5z" />
<glyph unicode="F" horiz-adv-x="1318" d="M61 0v864q0 25 16.5 53.5t41 53t53.5 42t53 17.5h1032v-270h-866q-27 0 -35 -15.5t-8 -39.5v-64h909v-252h-929v-389h-267z" />
<glyph unicode="G" d="M61 166v698q0 25 16.5 53.5t41 53t53.5 42t53 17.5h949q25 0 53 -16.5t53 -41t41 -54t16 -54.5v-102h-989v-481h682q6 4 10 18t7 29q0 51 -46 65h-462v248h671q39 0 63.5 -23.5t39 -58.5t19.5 -77t5 -81v-235q0 -27 -13 -55.5t-35.5 -53t-51.5 -41t-57 -16.5h-955 q-25 0 -53.5 17.5t-53 42t-41 53t-16.5 53.5z" />
<glyph unicode="H" horiz-adv-x="1374" d="M61 0h273v391h706v-391h273v1030h-275v-389h-700v389h-277v-1030z" />
<glyph unicode="I" horiz-adv-x="393" d="M61 0h271v637h-271v-637zM61 756h271v274h-271v-274z" />
<glyph unicode="J" horiz-adv-x="1318" d="M61 0h1033q23 0 51.5 16.5t53 42t41.5 54t17 53.5v864h-274v-711q0 -20 -8 -34.5t-31 -14.5h-883v-270z" />
<glyph unicode="K" horiz-adv-x="1333" d="M61 0h273v391h397l524 -821h308l-570 946l314 514h-326l-248 -389h-395v389h-277v-1030z" />
<glyph unicode="L" horiz-adv-x="1318" d="M61 166q0 -25 16.5 -53.5t41 -54t53.5 -42t53 -16.5h1032v270h-888q-23 0 -31 14.5t-8 34.5v711h-269v-864z" />
<glyph unicode="M" horiz-adv-x="1605" d="M61 0v864q0 41 24 73t59.5 53.5t74.5 32.5t70 11q72 0 122 -34.5t85 -94.5l305 -543l315 543q39 66 86 97.5t117 31.5q31 0 69.5 -11t73.5 -32.5t58.5 -53.5t23.5 -73v-864h-266v575q-16 -29 -56 -97t-84 -145t-86 -143.5t-61 -91.5q-12 -16 -18 -22q-23 -29 -37 -44.5 t-29.5 -23.5t-37 -9t-60.5 -1h-47q-27 0 -42 2t-28.5 11t-27 25.5t-33.5 45.5q-4 6 -7 10t-8 8q-18 23 -47.5 70t-67.5 110.5t-82 139t-91 155.5v-575h-267z" />
<glyph unicode="N" d="M61 0v903q0 27 16.5 50.5t43 41t62.5 27.5t77 10h16q13 0 17 -2q51 -6 119.5 -51t143.5 -110.5t152.5 -142.5t146.5 -146.5t126 -123t90 -71.5v633h266v-901q0 -41 -19.5 -64.5t-50 -38t-66.5 -18.5t-68 -4h-25q-47 0 -106.5 38t-128 98t-141.5 134t-144.5 145.5 t-138 133t-121.5 96.5v-637h-267z" />
<glyph unicode="O" d="M61 166v698q0 25 16.5 53.5t41 53t53.5 42t53 17.5h949q25 0 53 -17.5t53 -42t41 -53t16 -53.5v-698q0 -25 -16 -53.5t-41 -54t-53.5 -42t-52.5 -16.5h-949q-10 0 -40 12.5t-44 28.5q-12 8 -26.5 23.5t-25.5 34t-19.5 36t-8.5 31.5zM348 291h703v448h-703v-448z" />
<glyph unicode="P" horiz-adv-x="1277" d="M61 0v641h824q27 0 33 20.5t6 40.5q0 23 -7.5 35.5t-29.5 22.5h-826v270h1069q27 -6 41.5 -16t21.5 -20.5t12 -24t12 -25.5v-446q-4 -35 -22.5 -62.5t-64.5 -44.5h-802v-391h-267z" />
<glyph unicode="Q" d="M61 166v698q0 25 16.5 53.5t41 53t53.5 42t53 17.5h949q25 0 53 -17.5t53 -42t41 -53t16 -53.5v-698q0 -25 -16 -53.5t-41 -54t-53.5 -42t-52.5 -16.5h-5l279 -438h-328l-270 438h-625q-6 0 -17 4t-23.5 10t-25 13.5t-18.5 13.5q-12 8 -26.5 23.5t-25.5 34t-19.5 36 t-8.5 31.5zM348 291h324l-146 215h326l137 -215h62v448h-703v-448z" />
<glyph unicode="R" horiz-adv-x="1320" d="M61 0v641h824q27 0 33 20.5t6 40.5q0 23 -7.5 35.5t-29.5 22.5h-826v270h1069q27 -6 41.5 -15t22.5 -21.5t12 -25t11 -24.5v-446q-4 -35 -22.5 -62.5t-64.5 -42.5h-83l530 -835h-326l-544 833h-379v-391h-267z" />
<glyph unicode="S" horiz-adv-x="1374" d="M61 514v270q0 41 7.5 85t24 80t44 58.5t68.5 22.5h1100v-270h-906q-25 -10 -32 -20.5t-11 -37.5q0 -53 43 -61h783q33 0 58.5 -24.5t40.5 -62.5t23.5 -84t8.5 -87v-139q0 -39 -3 -82t-16.5 -79t-40 -59.5t-71.5 -23.5h-1112v272h903q23 6 30 20.5t11 37.5q0 23 -8.5 39 t-32.5 22h-778q-20 6 -43 17.5t-42.5 28t-33 36t-15.5 41.5z" />
<glyph unicode="T" horiz-adv-x="1359" d="M61 760v270h1237v-270h-475v-760h-291v760h-471z" />
<glyph unicode="U" d="M61 166q0 -25 16.5 -53.5t41 -53t53.5 -42t53 -17.5h949q25 0 53 16.5t53 42t41 54t16 53.5v864h-286v-739h-703v739h-287v-864z" />
<glyph unicode="V" horiz-adv-x="1329" d="M31 1030q190 -221 329.5 -384t237.5 -277.5t161.5 -186t103.5 -112.5t62.5 -55.5t41.5 -14.5h82q35 0 73.5 12.5t70.5 34t53.5 52t21.5 67.5v864h-269v-678l-22 8q-6 0 -13.5 5.5t-25.5 26t-54 62.5t-100.5 116.5t-164 186t-244.5 273.5h-344z" />
<glyph unicode="W" horiz-adv-x="1605" d="M61 166v864h267v-575q16 29 55 97.5t84 144t87 142t62 89.5q25 35 44.5 55.5t37 31.5t36 14t40.5 3h70q29 0 45 -3t28.5 -12t24.5 -25.5t33 -43.5q6 -8 14 -20q18 -23 48 -70t68 -110.5t82 -138t91 -154.5v575h266v-864q0 -41 -23.5 -73t-58.5 -53.5t-73.5 -32.5 t-69.5 -11q-72 0 -122 35t-83 90l-313 526l-309 -526q-72 -125 -203 -125q-31 0 -70 11t-74.5 32.5t-59.5 53.5t-24 73z" />
<glyph unicode="X" horiz-adv-x="1312" d="M41 0h321l250 391h99l524 -821h307l-567 946l313 514h-325l-248 -389h-105l-248 389h-321l309 -514z" />
<glyph unicode="Y" horiz-adv-x="1376" d="M61 522q2 -20 17.5 -41.5t37 -40t45 -32t44.5 -17.5h770q45 -12 45 -63q-4 -20 -13.5 -34.5t-31.5 -21.5h-903v-272h1112q45 0 70.5 23.5t39 59.5t17.5 79t4 82v786h-273v-389h-659q-43 8 -43 61v328h-279v-508z" />
<glyph unicode="Z" horiz-adv-x="1359" d="M61 0h1237v270h-768l768 492v268h-1237v-270h781l-781 -490v-270z" />
<glyph unicode="[" horiz-adv-x="714" d="M61 0h592v270h-307v490h307v270h-592v-1030z" />
<glyph unicode="\" horiz-adv-x="1304" d="M59 1030l861 -1030h321l-856 1030h-326z" />
<glyph unicode="]" horiz-adv-x="714" d="M61 0v270h301v490h-301v270h592v-1030h-592z" />
<glyph unicode="^" horiz-adv-x="1329" d="M31 0v864q0 37 21.5 68t53 52.5t70.5 33.5t74 12h90q18 0 44 -16.5t67 -58.5t105.5 -115.5t160.5 -187t231 -274.5t320 -378h-340l-152 166h-477v-166h-268zM322 414h247l-184 221q-10 10 -23.5 24.5t-27.5 14.5l-3 -1l-9 -3v-256z" />
<glyph unicode="_" horiz-adv-x="780" d="M61 0v250h658v-250h-658z" />
<glyph unicode="`" horiz-adv-x="2297" d="M61 760h471v-760h291v760h475v270h-1237v-270zM999 0h340l152 166h477v-166h268v864q0 37 -21.5 68t-53 52.5t-70.5 33.5t-74 12h-90q-20 0 -46 -17.5t-69 -60.5t-107.5 -117.5t-160.5 -189.5t-230 -273.5t-315 -371.5zM1698 414l184 221q10 10 23.5 24.5t27.5 14.5l3 -1 q4 -1 10 -3v-256h-248z" />
<glyph unicode="a" d="M61 0v864q0 25 16.5 53.5t41 53t53.5 42t53 17.5h949q25 0 53 -17.5t53 -44t41 -55t16 -49.5v-864h-286v389h-703v-389h-287zM348 641h703v119h-703v-119z" />
<glyph unicode="b" horiz-adv-x="1361" d="M61 0v641h764q27 0 33 20.5t6 40.5q0 23 -7 35.5t-30 22.5h-766v270h1010q27 -6 41 -15t22.5 -21.5t12.5 -25t10 -24.5v-307h60q43 -16 61 -44t22 -63v-444q-6 -12 -10 -24.5t-12 -24.5t-22.5 -21.5t-41.5 -15.5h-1153zM328 270h637q25 10 34 22.5t9 31.5q0 23 -8 44 t-37 21h-635v-119z" />
<glyph unicode="c" d="M61 166v698q0 25 16.5 53.5t41 53t53.5 42t53 17.5h949q25 0 53 -16.5t53 -41t41 -54t16 -54.5v-235h-286v125h-703v-473h703v120h286v-235q0 -25 -16 -53.5t-41 -54t-53.5 -42t-52.5 -16.5h-949q-25 0 -53.5 17.5t-53 42t-41 53t-16.5 53.5z" />
<glyph unicode="d" horiz-adv-x="1280" d="M61 0h994q23 0 51.5 16.5t53 42t42 54t17.5 53.5v698q0 25 -17.5 53.5t-42 53t-53.5 42t-51 17.5h-992v-270h826q23 0 30 -15.5t7 -39.5v-383q0 -23 -7.5 -36.5t-29.5 -13.5h-557v371h-271v-643z" />
<glyph unicode="e" horiz-adv-x="1277" d="M61 166v698q0 25 16.5 53.5t41 53t53.5 42t53 17.5h992v-270h-826q-27 0 -35 -15.5t-8 -39.5q0 -16 4 -35t4 -29h861v-250h-861q0 -10 -4 -30.5t-4 -38.5q0 -23 8.5 -36.5t34.5 -13.5h826v-272h-992q-25 0 -53.5 16.5t-53 42t-41 54t-16.5 53.5z" />
<glyph unicode="f" horiz-adv-x="1318" d="M61 0v864q0 25 16.5 53.5t41 53t53.5 42t53 17.5h1032v-270h-866q-27 0 -35 -15.5t-8 -39.5v-64h909v-252h-929v-389h-267z" />
<glyph unicode="g" d="M61 166v698q0 25 16.5 53.5t41 53t53.5 42t53 17.5h1112v-268h-989v-481h682q6 4 10 18t7 29q0 51 -46 65h-462v248h671q39 0 63.5 -23.5t39 -58.5t19.5 -77t5 -81v-235q0 -27 -13 -55.5t-35.5 -53t-51.5 -41t-57 -16.5h-955q-25 0 -53.5 17.5t-53 42t-41 53t-16.5 53.5z " />
<glyph unicode="h" horiz-adv-x="1374" d="M61 0h273v391h706v-391h273v1030h-275v-389h-700v389h-277v-1030z" />
<glyph unicode="i" horiz-adv-x="393" d="M61 0v1030h271v-1030h-271z" />
<glyph unicode="j" d="M61 166v235h287v-110h703v739h286v-864q0 -25 -16 -53.5t-41 -53t-53.5 -42t-52.5 -17.5h-949q-25 0 -53.5 16.5t-53 42t-41 54t-16.5 53.5z" />
<glyph unicode="k" horiz-adv-x="1353" d="M61 0v1030h277v-389h346l4 2l295 387h330l-379 -514l379 -516h-330l-295 391h-354v-391h-273z" />
<glyph unicode="l" horiz-adv-x="1318" d="M61 166q0 -25 16.5 -53.5t41 -54t53.5 -42t53 -16.5h1032v270h-888q-23 0 -31 14.5t-8 34.5v711h-269v-864z" />
<glyph unicode="m" horiz-adv-x="1605" d="M61 0v864q0 41 24 73t59.5 53.5t74.5 32.5t70 11q72 0 122 -34.5t85 -94.5l305 -543l315 543q39 66 86 97.5t117 31.5q31 0 69.5 -11t73.5 -32.5t58.5 -53.5t23.5 -73v-864h-266v575q-16 -29 -56 -97t-84 -145t-86 -143.5t-61 -91.5q-12 -16 -18 -22q-23 -29 -37 -44.5 t-29.5 -23.5t-37 -9t-60.5 -1h-47q-27 0 -42 2t-28.5 11t-27 25.5t-33.5 45.5q-4 6 -7 10t-8 8q-18 23 -47.5 70t-67.5 110.5t-82 139t-91 155.5v-575h-267z" />
<glyph unicode="n" d="M61 0v903q0 27 16.5 50.5t43 41t62.5 27.5t77 10h16q13 0 17 -2q51 -6 119.5 -51t143.5 -110.5t152.5 -142.5t146.5 -146.5t126 -123t90 -71.5v633h266v-901q0 -41 -19.5 -64.5t-50 -38t-66.5 -18.5t-68 -4h-25q-47 0 -106.5 38t-128 98t-141.5 134t-144.5 145.5 t-138 133t-121.5 96.5v-637h-267z" />
<glyph unicode="o" d="M61 166q0 -14 8.5 -31.5t19.5 -36t25.5 -34t26.5 -23.5q14 -16 44 -28.5t40 -12.5h949q25 0 53 16.5t53 42t41 54t16 53.5v698q0 25 -16 53.5t-41 53t-53.5 42t-52.5 17.5h-949q-25 0 -53.5 -17.5t-53 -42t-41 -53t-16.5 -53.5v-698zM348 281v473h703v-473h-703z" />
<glyph unicode="p" horiz-adv-x="1277" d="M61 0v641h824q27 0 33 20.5t6 40.5q0 23 -7.5 35.5t-29.5 22.5h-826v270h1069q27 -6 41.5 -16t21.5 -20.5t12 -24t12 -25.5v-446q-4 -35 -22.5 -62.5t-64.5 -44.5h-802v-391h-267z" />
<glyph unicode="q" d="M61 166v698q0 25 16.5 53.5t41 53t53.5 42t53 17.5h949q25 0 53 -17.5t53 -42t41 -53t16 -53.5v-698q0 -25 -15 -52.5t-37.5 -52t-50.5 -42t-52 -19.5l133 -201h-330l-133 201h-627q-6 0 -17 4t-23.5 10t-25 13.5t-18.5 13.5q-12 8 -26.5 23.5t-25.5 34t-19.5 36 t-8.5 31.5zM348 276h338l-160 230h326l152 -230h47v476h-703v-476z" />
<glyph unicode="r" horiz-adv-x="1329" d="M61 0v641h824q27 0 33 20.5t6 40.5q0 23 -7.5 35.5t-29.5 22.5h-826v270h1069q27 -6 41.5 -15t22.5 -21.5t12 -25t11 -24.5v-446q-4 -35 -22.5 -62.5t-64.5 -42.5h-79l247 -393h-327l-254 391h-389v-391h-267z" />
<glyph unicode="s" horiz-adv-x="1374" d="M61 514v270q0 41 7.5 85t24 80t44 58.5t68.5 22.5h1100v-270h-906q-25 -10 -32 -20.5t-11 -37.5q0 -53 43 -61h783q33 0 58.5 -24.5t40.5 -62.5t23.5 -84t8.5 -87v-139q0 -39 -3 -82t-16.5 -79t-40 -59.5t-71.5 -23.5h-1112v272h903q23 6 30 20.5t11 37.5q0 23 -8.5 39 t-32.5 22h-778q-20 6 -43 17.5t-42.5 28t-33 36t-15.5 41.5z" />
<glyph unicode="t" horiz-adv-x="1359" d="M61 760v270h1237v-270h-475v-760h-291v760h-471z" />
<glyph unicode="u" d="M61 166v864h287v-747h703v747h286v-864q0 -25 -16 -53.5t-41 -54t-53.5 -42t-52.5 -16.5h-949q-25 0 -53.5 17.5t-53 42t-41 53t-16.5 53.5z" />
<glyph unicode="v" horiz-adv-x="1329" d="M61 166v864h263v-678l22 8q6 0 13.5 5.5t25.5 26t54 62.5t100.5 116.5t164 186t244.5 273.5h350q-193 -221 -333 -384t-238 -277.5t-161.5 -186t-104.5 -112.5t-63.5 -55.5t-41.5 -14.5h-75q-37 0 -76 12.5t-71 34t-52.5 52t-20.5 67.5z" />
<glyph unicode="w" horiz-adv-x="1605" d="M61 166v864h267v-575q16 29 56 96t85 143t86 141.5t61 90.5q25 35 44.5 55t37 31.5t36 14.5t40.5 3h70q27 0 42 -2t27.5 -10t23.5 -22.5t30 -39.5l8 -10q6 -8 14 -20q16 -20 44 -62.5t62.5 -98.5t74.5 -125t83 -142l25 -43v575h266v-864q0 -41 -23.5 -73t-58.5 -53.5 t-73.5 -32.5t-69.5 -11q-72 0 -122 35t-83 90l-313 526l-309 -526q-72 -125 -203 -125q-31 0 -70 11t-74.5 32.5t-59.5 53.5t-24 73z" />
<glyph unicode="x" horiz-adv-x="1329" d="M41 0h321l250 391h101l250 -391h325l-313 516l313 514h-325l-248 -389h-105l-248 389h-321l309 -514z" />
<glyph unicode="y" horiz-adv-x="1376" d="M61 522v508h279v-328q0 -53 43 -61h659v389h273v-786q0 -39 -4 -82t-17.5 -79t-39 -59.5t-70.5 -23.5h-1112v272h903q23 6 32 20.5t13 35.5q0 51 -45 63h-770q-20 4 -44 17.5t-45.5 32t-37 40t-17.5 41.5z" />
<glyph unicode="z" horiz-adv-x="1359" d="M61 0h1237v270h-768l768 492v268h-1237v-270h781l-781 -490v-270z" />
<glyph unicode="{" horiz-adv-x="2244" d="M61 0h267v391h802q45 16 63.5 44t23.5 63v446q-6 12 -10.5 24.5t-12.5 25t-22.5 21.5t-41.5 15h-1069v-270h826q23 -10 30 -22.5t7 -35.5q0 -20 -6.5 -40.5t-32.5 -20.5h-824v-641zM946 0h340l152 166h477v-166h268v864q0 37 -21.5 68t-53 52.5t-70.5 33.5t-74 12h-90 q-20 0 -46 -16.5t-69 -59.5t-106.5 -116.5t-160.5 -188t-230.5 -274.5t-315.5 -375zM1645 414l184 221q10 10 23.5 24.5t27.5 14.5l3 -1l9 -3v-256h-247z" />
<glyph unicode="|" horiz-adv-x="393" d="M61 -272v1572h271v-1572h-271z" />
<glyph unicode="}" horiz-adv-x="1990" d="M61 0h263v166h477l151 -166h346q-182 217 -316 377t-231.5 274.5t-162 188t-107.5 115.5t-69.5 58.5t-46.5 16.5h-84q-37 0 -76 -12t-71 -33.5t-52.5 -52.5t-20.5 -68v-864zM346 414v256l9 3l3 1q14 0 27.5 -14.5t24.5 -24.5l184 -221h-248zM692 1030 q190 -221 329.5 -384t238 -277.5t162 -186t103.5 -112.5t63.5 -55.5t39.5 -14.5h82q35 0 74 12.5t70.5 34t53 52t21.5 67.5v864h-268v-678l-23 8q-6 0 -13 5.5t-25.5 26t-54.5 62.5t-100.5 116.5t-163.5 186t-245 273.5h-344z" />
<glyph unicode="~" horiz-adv-x="2369" d="M61 0h267v389h929v252h-909v64q0 25 8.5 40t34.5 15h866v270h-1032q-25 0 -53.5 -17.5t-53 -42t-41 -53t-16.5 -53.5v-864zM1071 0h340l152 166h477v-166h268v864q0 37 -21.5 68t-53 52.5t-70.5 33.5t-74 12h-90q-18 0 -44 -16.5t-68 -58.5t-106.5 -115.5t-160.5 -187 t-231.5 -274.5t-317.5 -378zM1769 414l185 221q10 10 23.5 24.5t27.5 14.5l3 -1l9 -3v-256h-248z" />
<glyph horiz-adv-x="362" />
<glyph unicode="&#xa1;" horiz-adv-x="393" d="M61 -2h271v639h-271v-639zM61 756h271v272h-271v-272z" />
<glyph unicode="&#xa2;" horiz-adv-x="1277" d="M61 297q0 -25 16.5 -53.5t41 -54t53.5 -42t53 -16.5h365v-131h270v131h357v272h-357v222h357v270h-357v135h-270v-135h-365q-25 0 -53.5 -17.5t-53 -42t-41 -53t-16.5 -53.5v-432zM348 453v116q0 25 8.5 40.5t34.5 15.5h199v-222h-199q-27 0 -35 13.5t-8 36.5z" />
<glyph unicode="&#xa3;" horiz-adv-x="1323" d="M61 0h1201v270h-666q-25 10 -34 22.5t-9 31.5q0 18 5 37.5t24 25.5h55v2h448v252h-409q-27 0 -33 20.5t-6 40.5q0 23 7 35.5t30 22.5h256v270h-500q-27 -6 -41 -15t-22.5 -21.5t-12.5 -25t-10 -24.5v-307h-283v-250h199v-137h-199v-250z" />
<glyph unicode="&#xa4;" horiz-adv-x="1370" d="M61 0h322l127 199h346l127 -199h326l-213 350v330l213 350h-326l-119 -186h-362l-119 186h-322l213 -354v-322zM520 418v198h336v-198h-336z" />
<glyph unicode="&#xa5;" horiz-adv-x="1533" d="M61 522q2 -20 17.5 -41.5t37 -40t45 -32t44.5 -17.5h600q45 -12 45 -63q-4 -20 -13.5 -34.5t-31.5 -21.5h-733v-272h942q39 0 64.5 19.5t40 50t19.5 68.5t7 75h328v250h-328v117h328v249h-328v201h-273v-389h-489q-43 8 -43 61v328h-279v-508z" />
<glyph unicode="&#xa6;" horiz-adv-x="393" d="M61 0h271v459h-271v-459zM61 578h271v452h-271v-452z" />
<glyph unicode="&#xa7;" horiz-adv-x="1370" d="M61 0h322l127 199h346q92 0 150.5 41t89.5 110v330l213 350h-326l-119 -186h-362q-90 0 -142.5 -48t-85.5 -120v-322zM520 418v198h336v-198h-336z" />
<glyph unicode="&#xa8;" horiz-adv-x="825" d="M61 1184h277v272h-277v-272zM487 1184h277v272h-277v-272z" />
<glyph unicode="&#xa9;" horiz-adv-x="577" d="M61 899q0 31 8.5 58.5t22.5 56.5q29 53 86 84q52 28 111 28q61 0 110 -28q57 -31 86 -84q31 -53 31 -115q0 -59 -31 -111q-14 -29 -34.5 -49t-49.5 -37q-57 -29 -112 -28q-59 0 -113 28q-27 16 -47 37t-37 49q-31 51 -31 111zM100 899q0 -47 25 -92q23 -43 70 -70 q45 -25 94 -24q47 0 94 24q39 20 70 70q25 45 24 92q0 49 -24 96q-23 43 -72 70q-23 14 -46 19.5t-46 5.5q-47 0 -92 -24t-72 -71q-25 -47 -25 -96zM170 899q0 63 33 96t88 33q82 0 102 -72l-35 -8q-23 47 -67 47q-37 0 -58.5 -24.5t-21.5 -71.5t20.5 -69.5t55.5 -22.5 q61 0 75 57l37 -10q-10 -39 -39.5 -61.5t-70.5 -22.5q-53 0 -86 34t-33 95z" />
<glyph unicode="&#xaa;" horiz-adv-x="759" d="M61 612v432q0 12 8.5 26.5t20.5 27t26.5 20.5t26.5 8h473q12 0 26.5 -9t27 -21.5t20.5 -26.5t8 -25v-432h-143v195h-350v-195h-144zM205 932h350v49h-350v-49z" />
<glyph unicode="&#xab;" horiz-adv-x="727" d="M61 291l275 -129v276l-162 78l162 72v276l-275 -129v-444zM391 291l275 -129v276l-162 78l162 72v276l-275 -129v-444z" />
<glyph unicode="&#xac;" horiz-adv-x="778" d="M61 391h410v-207h246v457h-656v-250z" />
<glyph unicode="&#xad;" horiz-adv-x="620" d="M61 391h498v250h-498v-250z" />
<glyph unicode="&#xae;" horiz-adv-x="577" d="M61 899q0 31 8.5 58.5t22.5 56.5q29 53 86 84q52 28 111 28q61 0 110 -28q57 -31 86 -84q31 -53 31 -115q0 -59 -31 -111q-14 -29 -34.5 -49t-49.5 -37q-57 -29 -112 -28q-59 0 -113 28q-27 16 -47 37t-37 49q-31 51 -31 111zM100 899q0 -47 25 -92q23 -43 70 -70 q45 -25 94 -24q47 0 94 24q39 20 70 70q25 45 24 92q0 49 -24 96q-23 43 -72 70q-23 14 -46 19.5t-46 5.5q-47 0 -92 -24t-72 -71q-25 -47 -25 -96zM190 776v244h82q23 0 38.5 -2t25.5 -6q18 -8 29 -23q12 -14 12 -37q0 -27 -18.5 -46t-51.5 -21q18 -8 29.5 -21.5 t28.5 -40.5l30 -47h-49l-20 37q-29 49 -43 57q-8 8 -31 9h-23v-103h-39zM229 911h47q35 0 47.5 10.5t12.5 26.5q0 25 -23 35q-6 2 -41 2h-43v-74z" />
<glyph unicode="&#xaf;" horiz-adv-x="780" d="M61 774h658v250h-658v-250z" />
<glyph unicode="&#xb0;" horiz-adv-x="399" d="M61 1184h277v272h-277v-272z" />
<glyph unicode="&#xb1;" horiz-adv-x="782" d="M61 0h658v250h-658v-250zM63 569h207v-209h246v209h205v250h-205v205h-246v-205h-207v-250z" />
<glyph unicode="&#xb2;" horiz-adv-x="749" d="M61 614v191q0 20 4.5 42.5t12.5 42t19.5 32t27.5 12.5h391q23 6 23 31q-4 14 -7.5 19t-15.5 9h-450v135h548q20 0 35 -11t24 -29.5t12 -40t3 -41.5v-136q-4 -23 -25.5 -39t-44.5 -22h-389q-20 -6 -20 -31v-28h475v-136h-623z" />
<glyph unicode="&#xb3;" horiz-adv-x="741" d="M61 614h576q27 6 32 18.5t11 24.5v222q-2 18 -10 31.5t-31 21.5v153q-6 12 -11 24.5t-32 18.5h-535v-135h412q12 -4 15.5 -10t3.5 -18q0 -10 -3.5 -20.5t-15.5 -10.5h-412v-125h451q14 0 18.5 -11.5t4.5 -21.5q0 -18 -23 -26h-451v-136z" />
<glyph unicode="&#xb4;" horiz-adv-x="528" d="M61 1184h277l129 274h-277z" />
<glyph unicode="&#xb5;" horiz-adv-x="1376" d="M61 244q0 -39 4.5 -82t17.5 -79t38.5 -59.5t71.5 -23.5h1112v272h-904q-23 6 -32 20.5t-13 35.5q0 51 45 63h770q20 4 44 17.5t45.5 32t37 40t17.5 41.5v508h-279v-328q0 -53 -43 -61h-659v389h-273v-786z" />
<glyph unicode="&#xb6;" horiz-adv-x="2582" d="M61 723l17 -92l180 -96l-100 -95q0 -72 49 -71l260 -54l-51 -61v-70l424 -41l-17 -92l49 -35l408 74v-113l51 -18l309 184l99 -112l82 20l159 203q53 -35 92 -54.5t74 -19.5q47 0 64 41l18 219l162 -34q51 14 51 79v15q0 16 -4 20l-98 146h147l33 75q0 2 1 4.5t1 4.5 q0 51 -215 141q117 14 117 106v13v10l-328 98q66 12 66 107l-35 39h-387l14 112l-113 17l-325 -74l-17 18l17 56l-66 57l-295 -168l-145 111q-43 -20 -89 -74.5t-106 -147.5l-182 74h-8q-74 0 -74 -264l-192 23l-17 -113l99 -133zM111 686l208 19l-112 165l-17 76l213 -18 l29 260q104 -80 162 -80q4 0 39 10l176 219l129 -112l295 168l33 -17l14 -112l424 73l-31 -131h438l-131 -110l375 -92l19 -39h-19l-164 -54l263 -153l16 -35l-209 -18q133 -170 133 -226q0 2 -1 -3t-3 -17l-215 41l-14 -264l-211 79l-162 -225l-148 111l-325 -185l16 74 l-51 74l-408 -92l50 129l-455 20l131 107l-391 98l180 94zM467 510l65 25l15 323l-51 -12zM578 655q0 -23 2 -24q27 -143 112 -144q10 0 24.5 5.5t35.5 9.5l-4 55q-14 -8 -56 -8q-61 0 -61 65q0 68 43 134q41 47 78 47q10 0 15 -1t15 -8l6 80q-211 -37 -210 -192v-19z M809 567q18 -55 98 -55q23 0 47 6q86 1 113 230q-25 109 -121 108h-16q2 0 0 -1t-12 -1q-109 -74 -109 -287zM864 653v23q37 104 84 104q37 0 56 -43q8 -8 8 -37q0 -53 -25 -98q-53 -29 -76 -29q-47 0 -47 80zM1098 842l6 -332l45 10v156q104 -158 176 -158v324l-51 16 l-8 -227zM1378 526l70 23l14 323l-55 -14zM1495 545h59q37 76 72 76q41 0 68 -76l39 -15l-7 246q-23 102 -73 103q-31 0 -39 -9q-102 -164 -119 -325zM1585 692l57 111l35 -111h-92zM1778 852l6 -326l43 4v162q108 -164 176 -164v326l-49 18l-12 -229zM2044 498l35 -39 l47 51l-43 20zM2071 621l47 -9l34 240l-69 20z" />
<glyph unicode="&#xb7;" horiz-adv-x="393" d="M61 391h271v273h-271v-273z" />
<glyph unicode="&#xb8;" horiz-adv-x="364" d="M-150 -98v-250h453v348h-246v-98h-207z" />
<glyph unicode="&#xb9;" horiz-adv-x="380" d="M61 991h115v-379h143v514h-258v-135z" />
<glyph unicode="&#xba;" horiz-adv-x="759" d="M61 694q0 -14 13.5 -33.5t25.5 -27.5q8 -10 22.5 -15.5t20.5 -5.5h473q12 0 26.5 8.5t27 20.5t20.5 26.5t8 26.5v350q0 12 -8 26.5t-20.5 27t-26.5 20.5t-27 8h-473q-12 0 -26.5 -8t-26.5 -20.5t-20.5 -26.5t-8.5 -27v-350zM205 758v223h350v-223h-350z" />
<glyph unicode="&#xbb;" horiz-adv-x="727" d="M59 162v276l162 78l-162 72v276l275 -129v-444zM389 162v276l162 78l-162 72v276l275 -129v-444z" />
<glyph unicode="&#xbc;" horiz-adv-x="1363" d="M61 0h322l860 1030h-325zM127 895h115v-379h147v514h-262v-135zM668 82h413v-82h131v82h91v125h-91v307h-155q-8 -2 -16.5 -5t-22.5 -15.5t-38 -39t-63.5 -71.5t-98 -114.5t-142.5 -168.5zM946 207l92 110q6 4 12.5 11.5t14.5 7.5q2 0 6 -2v-127h-125z" />
<glyph unicode="&#xbd;" horiz-adv-x="1562" d="M61 0l857 1030h325l-860 -1030h-322zM127 895v135h262v-514h-147v379h-115zM874 0v190q0 20 4.5 43t12.5 42.5t19.5 31.5t27.5 12h391q23 6 23 31q-4 14 -7.5 19.5t-15.5 9.5h-450v135h548q20 0 35 -11t24 -29.5t12 -40t3 -42.5v-135q-4 -23 -25.5 -39t-43.5 -22h-390 q-20 -6 -20 -31v-29h475v-135h-623z" />
<glyph unicode="&#xbe;" horiz-adv-x="1601" d="M61 516h576q27 6 32 18.5t11 24.5v221q-2 18 -10 31.5t-31 22.5v153q-6 12 -11 24.5t-32 18.5h-535v-135h412q12 -4 15.5 -10t3.5 -19q0 -10 -3.5 -20t-15.5 -10h-412v-125h451q14 0 18.5 -11.5t4.5 -21.5q0 -18 -23 -27h-451v-135zM299 0h322l860 1030h-326zM905 82h414 v-82h131v82h90v125h-90v307h-156q-8 -2 -16 -5t-22.5 -15.5t-38 -39t-63.5 -71.5t-98.5 -114.5t-142.5 -168.5zM1184 207l92 110q6 4 12 11.5t15 7.5q2 0 6 -2v-127h-125z" />
<glyph unicode="&#xbf;" horiz-adv-x="1366" d="M59 244q0 -41 6.5 -85t23.5 -80t46 -58.5t72 -22.5h1096v270h-902q-25 10 -32 20.5t-11 37.5q0 51 43 61h686q33 0 58.5 24.5t41 61.5t24 81t8.5 85l-1012 2q-20 -6 -45 -18.5t-47.5 -28.5t-38 -36.5t-17.5 -43.5v-270zM936 756h276v272h-276v-272z" />
<glyph unicode="&#xc0;" horiz-adv-x="1359" d="M61 0h340l152 166h477v-166h268v864q0 37 -21.5 68t-53 52.5t-70.5 33.5t-74 12h-90q-18 0 -40.5 -15.5t-62.5 -57.5t-103.5 -113.5t-161 -186t-234.5 -276.5t-326 -381zM760 414l184 221q10 10 23.5 24.5t27.5 14.5l3 -1q4 -1 10 -3v-256h-248zM823 1458l129 -274h277 l-129 274h-277z" />
<glyph unicode="&#xc1;" horiz-adv-x="1359" d="M61 0h340l152 166h477v-166h268v864q0 37 -21.5 68t-53 52.5t-70.5 33.5t-74 12h-90q-18 0 -40.5 -15.5t-62.5 -57.5t-103.5 -113.5t-161 -186t-234.5 -276.5t-326 -381zM760 414l184 221q10 10 23.5 24.5t27.5 14.5l3 -1q4 -1 10 -3v-256h-248zM831 1184h277l129 274 h-276z" />
<glyph unicode="&#xc2;" horiz-adv-x="1359" d="M61 0h340l152 166h477v-166h268v864q0 37 -21.5 68t-53 52.5t-70.5 33.5t-74 12h-90q-18 0 -40.5 -15.5t-62.5 -57.5t-103.5 -113.5t-161 -186t-234.5 -276.5t-326 -381zM688 1184h277l77 162l72 -162h277l-129 274h-445zM760 414l184 221q10 10 23.5 24.5t27.5 14.5 l3 -1q4 -1 10 -3v-256h-248z" />
<glyph unicode="&#xc3;" horiz-adv-x="1359" d="M61 0h340l152 166h477v-166h268v864q0 37 -21.5 68t-53 52.5t-70.5 33.5t-74 12h-90q-18 0 -40.5 -15.5t-62.5 -57.5t-103.5 -113.5t-161 -186t-234.5 -276.5t-326 -381zM477 1184h277l75 155l74 -155h445l129 274h-277l-76 -158l-73 158h-445zM760 414l184 221 q10 10 23.5 24.5t27.5 14.5l3 -1q4 -1 10 -3v-256h-248z" />
<glyph unicode="&#xc4;" horiz-adv-x="1359" d="M61 0h340l152 166h477v-166h268v864q0 37 -21.5 68t-53 52.5t-70.5 33.5t-74 12h-90q-18 0 -40.5 -15.5t-62.5 -57.5t-103.5 -113.5t-161 -186t-234.5 -276.5t-326 -381zM688 1182h277v272h-277v-272zM760 414l184 221q10 10 23.5 24.5t27.5 14.5l3 -1q4 -1 10 -3v-256 h-248zM1114 1182h277v272h-277v-272z" />
<glyph unicode="&#xc5;" horiz-adv-x="1359" d="M61 0h340l152 166h477v-166h268v864q0 37 -21.5 68t-53 52.5t-70.5 33.5t-74 12h-90q-18 0 -40.5 -15.5t-62.5 -57.5t-103.5 -113.5t-161 -186t-234.5 -276.5t-326 -381zM760 414l184 221q10 10 23.5 24.5t27.5 14.5l3 -1q4 -1 10 -3v-256h-248zM899 1184h277v272h-277 v-272z" />
<glyph unicode="&#xc6;" horiz-adv-x="2224" d="M61 0h340l152 166h455v-166h1155v272h-826q-33 0 -39 19v69l3.5 17.5t1.5 13.5h860v250h-860q0 6 -5 27v67q6 25 39 25h826v270h-1174q-18 0 -40.5 -15.5t-62.5 -57.5t-103.5 -113.5t-161 -186t-234.5 -276.5t-326 -381zM760 414l184 221q10 10 23.5 24.5t27.5 14.5l3 -1 q4 -1 10 -3v-256h-248z" />
<glyph unicode="&#xc7;" horiz-adv-x="1277" d="M61 166q0 -25 16.5 -53.5t41 -54t53.5 -42t53 -16.5h375v-98h-207v-250h453v348h371v272h-826q-27 0 -35 13.5t-8 36.5v383q0 25 8.5 40t34.5 15h826v270h-992q-25 0 -53.5 -17.5t-53 -42t-41 -53t-16.5 -53.5v-698z" />
<glyph unicode="&#xc8;" horiz-adv-x="1361" d="M59 86q6 -12 10.5 -24.5t12.5 -24.5t22.5 -21.5t40.5 -15.5h1153v270h-903q-25 10 -34 22.5t-9 31.5q0 23 8.5 44t36.5 21h901v252h-823q-27 0 -33 20.5t-6 40.5q0 23 7.5 35.5t29.5 22.5h825v270h-1069q-27 -6 -41 -15t-22 -21.5t-12 -25t-11 -24.5v-307 q-43 -16 -61.5 -44t-22.5 -63v-444zM455 1460l129 -274h276l-129 274h-276z" />
<glyph unicode="&#xc9;" horiz-adv-x="1361" d="M59 86q6 -12 10.5 -24.5t12.5 -24.5t22.5 -21.5t40.5 -15.5h1153v270h-903q-25 10 -34 22.5t-9 31.5q0 23 8.5 44t36.5 21h901v252h-823q-27 0 -33 20.5t-6 40.5q0 23 7.5 35.5t29.5 22.5h825v270h-1069q-27 -6 -41 -15t-22 -21.5t-12 -25t-11 -24.5v-307 q-43 -16 -61.5 -44t-22.5 -63v-444zM547 1184h276l129 274h-276z" />
<glyph unicode="&#xca;" horiz-adv-x="1361" d="M59 86q6 -12 10.5 -24.5t12.5 -24.5t22.5 -21.5t40.5 -15.5h1153v270h-903q-25 10 -34 22.5t-9 31.5q0 23 8.5 44t36.5 21h901v252h-823q-27 0 -33 20.5t-6 40.5q0 23 7.5 35.5t29.5 22.5h825v270h-1069q-27 -6 -41 -15t-22 -21.5t-12 -25t-11 -24.5v-307 q-43 -16 -61.5 -44t-22.5 -63v-444zM348 1184h277l77 162l72 -162h277l-129 274h-445z" />
<glyph unicode="&#xcb;" horiz-adv-x="1361" d="M59 86q6 -12 10.5 -24.5t12.5 -24.5t22.5 -21.5t40.5 -15.5h1153v270h-903q-25 10 -34 22.5t-9 31.5q0 23 8.5 44t36.5 21h901v252h-823q-27 0 -33 20.5t-6 40.5q0 23 7.5 35.5t29.5 22.5h825v270h-1069q-27 -6 -41 -15t-22 -21.5t-12 -25t-11 -24.5v-307 q-43 -16 -61.5 -44t-22.5 -63v-444zM340 1184h276v272h-276v-272zM766 1184h276v272h-276v-272z" />
<glyph unicode="&#xcc;" horiz-adv-x="393" d="M-6 1458l129 -274h276l-129 274h-276zM61 -2h271v639h-271v-639zM61 756h271v272h-271v-272z" />
<glyph unicode="&#xcd;" horiz-adv-x="393" d="M-4 1182h276l129 274h-276zM61 -2h271v639h-271v-639zM61 756h271v272h-271v-272z" />
<glyph unicode="&#xce;" horiz-adv-x="393" d="M-145 1180h276l78 161l72 -161h276l-129 274h-444zM61 -2h271v639h-271v-639zM61 756h271v272h-271v-272z" />
<glyph unicode="&#xcf;" horiz-adv-x="393" d="M-145 1182h276v272h-276v-272zM61 -2h271v639h-271v-639zM61 756h271v272h-271v-272zM281 1182h276v272h-276v-272z" />
<glyph unicode="&#xd0;" horiz-adv-x="1476" d="M61 393h197v-393h993q23 0 51.5 16.5t53 42t42 54t17.5 53.5v698q0 25 -17.5 53.5t-42 53t-53 42t-51.5 17.5h-991v-270h825q23 0 30 -15.5t7 -39.5v-383q0 -23 -7 -36.5t-30 -13.5h-557v121h191v250h-658v-250z" />
<glyph unicode="&#xd1;" d="M61 0h267v637q55 -35 121.5 -96.5t138 -133t144.5 -145.5t141.5 -134t128 -98t106.5 -38h25q33 0 68.5 4t66 18.5t50 38t19.5 64.5v901h-266v-633q-33 18 -89 71.5t-126 123t-147.5 146.5t-152.5 142.5t-143.5 110.5t-119.5 51q-2 2 -17 2h-16q-41 0 -77 -10t-62.5 -27.5 t-43 -41t-16.5 -50.5v-903zM215 1188h277l75 155l74 -155h444l129 274h-276l-76 -157l-74 157h-444z" />
<glyph unicode="&#xd2;" d="M61 166q0 -14 8.5 -31.5t19.5 -36t25.5 -34t26.5 -23.5q14 -16 44 -28.5t40 -12.5h949q25 0 53 16.5t53 42t41 54t16 53.5v698q0 25 -16 53.5t-41 53t-53.5 42t-52.5 17.5h-949q-25 0 -53.5 -17.5t-53 -42t-41 -53t-16.5 -53.5v-698zM348 291v448h703v-448h-703z M455 1460l129 -274h276l-129 274h-276z" />
<glyph unicode="&#xd3;" d="M61 166q0 -14 8.5 -31.5t19.5 -36t25.5 -34t26.5 -23.5q14 -16 44 -28.5t40 -12.5h949q25 0 53 16.5t53 42t41 54t16 53.5v698q0 25 -16 53.5t-41 53t-53.5 42t-52.5 17.5h-949q-25 0 -53.5 -17.5t-53 -42t-41 -53t-16.5 -53.5v-698zM348 291v448h703v-448h-703z M547 1184h276l129 274h-276z" />
<glyph unicode="&#xd4;" d="M61 166q0 -14 8.5 -31.5t19.5 -36t25.5 -34t26.5 -23.5q14 -16 44 -28.5t40 -12.5h949q25 0 53 16.5t53 42t41 54t16 53.5v698q0 25 -16 53.5t-41 53t-53.5 42t-52.5 17.5h-949q-25 0 -53.5 -17.5t-53 -42t-41 -53t-16.5 -53.5v-698zM348 291v448h703v-448h-703z M348 1184h277l77 162l72 -162h277l-129 274h-445z" />
<glyph unicode="&#xd5;" d="M61 166q0 -14 8.5 -31.5t19.5 -36t25.5 -34t26.5 -23.5q14 -16 44 -28.5t40 -12.5h949q25 0 53 16.5t53 42t41 54t16 53.5v698q0 25 -16 53.5t-41 53t-53.5 42t-52.5 17.5h-949q-25 0 -53.5 -17.5t-53 -42t-41 -53t-16.5 -53.5v-698zM215 1188h277l75 155l74 -155h444 l129 274h-276l-76 -157l-74 157h-444zM348 291v448h703v-448h-703z" />
<glyph unicode="&#xd6;" d="M61 166q0 -14 8.5 -31.5t19.5 -36t25.5 -34t26.5 -23.5q14 -16 44 -28.5t40 -12.5h949q25 0 53 16.5t53 42t41 54t16 53.5v698q0 25 -16 53.5t-41 53t-53.5 42t-52.5 17.5h-949q-25 0 -53.5 -17.5t-53 -42t-41 -53t-16.5 -53.5v-698zM348 291v448h703v-448h-703z M348 1184h277v272h-277v-272zM774 1184h277v272h-277v-272z" />
<glyph unicode="&#xd7;" horiz-adv-x="765" d="M61 365l175 -175l147 148l143 -143l179 176l-146 145l146 143l-175 175l-145 -144l-145 146l-179 -177l148 -147z" />
<glyph unicode="&#xd8;" d="M61 166v698q0 25 16.5 53.5t41 53t53.5 42t53 17.5h949q25 0 53 -17.5t53 -42t41 -53t16 -53.5v-698q0 -25 -16 -53.5t-41 -54t-53.5 -42t-52.5 -16.5h-949q-10 0 -40 12.5t-44 28.5q-12 8 -26.5 23.5t-25.5 34t-19.5 36t-8.5 31.5zM348 291h703v448h-703v-448zM561 381 v272h277v-272h-277z" />
<glyph unicode="&#xd9;" d="M61 166q0 -25 16.5 -53.5t41 -53t53.5 -42t53 -17.5h949q25 0 53 16.5t53 42t41 54t16 53.5v864h-286v-739h-703v739h-287v-864zM455 1460l129 -274h276l-129 274h-276z" />
<glyph unicode="&#xda;" d="M61 166q0 -25 16.5 -53.5t41 -53t53.5 -42t53 -17.5h949q25 0 53 16.5t53 42t41 54t16 53.5v864h-286v-739h-703v739h-287v-864zM547 1184h276l129 274h-276z" />
<glyph unicode="&#xdb;" d="M61 166v864h287v-739h703v739h286v-864q0 -25 -16 -53.5t-41 -54t-53.5 -42t-52.5 -16.5h-949q-25 0 -53.5 17.5t-53 42t-41 53t-16.5 53.5zM348 1184l129 274h445l129 -274h-277l-72 162l-77 -162h-277z" />
<glyph unicode="&#xdc;" d="M61 166v864h287v-739h703v739h286v-864q0 -25 -16 -53.5t-41 -54t-53.5 -42t-52.5 -16.5h-949q-25 0 -53.5 17.5t-53 42t-41 53t-16.5 53.5zM348 1184v272h277v-272h-277zM774 1184v272h277v-272h-277z" />
<glyph unicode="&#xdd;" horiz-adv-x="1376" d="M61 522q2 -20 17.5 -41.5t37 -40t45 -32t44.5 -17.5h770q45 -12 45 -63q-4 -20 -13.5 -34.5t-31.5 -21.5h-903v-272h1112q45 0 70.5 23.5t39 59.5t17.5 79t4 82v786h-273v-389h-659q-43 8 -43 61v328h-279v-508zM547 1184h276l129 274h-276z" />
<glyph unicode="&#xde;" horiz-adv-x="1277" d="M61 0h267v180h802q45 16 63.5 44t23.5 63v446q-6 12 -10.5 24.5t-12.5 25t-22.5 21.5t-41.5 15h-800v211h-269v-481h826q23 -10 30 -22.5t7 -34.5q0 -20 -6.5 -41t-32.5 -21h-824v-430z" />
<glyph unicode="&#xdf;" horiz-adv-x="1361" d="M61 -272h271v1032h555q23 -10 30 -22.5t7 -35.5q0 -20 -6.5 -40.5t-32.5 -20.5h-428v-252h506q29 0 37 -21.5t8 -43.5q0 -18 -9.5 -30.5t-33.5 -23.5h-508v-270h757q27 6 41.5 15.5t22.5 21.5t12 24.5t10 24.5v444q-4 35 -22 63t-61 44v307q-6 12 -10.5 24.5t-12.5 25 t-22.5 21.5t-41.5 15h-1069v-1302z" />
<glyph unicode="&#xe0;" d="M61 0h287v389h703v-389h286v864q0 20 -16 49t-41 55.5t-53.5 44t-52.5 17.5h-949q-25 0 -53.5 -17.5t-53 -42t-41 -53t-16.5 -53.5v-864zM348 641v98h703v-98h-703zM455 1460l129 -274h276l-129 274h-276z" />
<glyph unicode="&#xe1;" d="M61 0h287v389h703v-389h286v864q0 20 -16 49t-41 55.5t-53.5 44t-52.5 17.5h-949q-25 0 -53.5 -17.5t-53 -42t-41 -53t-16.5 -53.5v-864zM348 641v98h703v-98h-703zM547 1184h276l129 274h-276z" />
<glyph unicode="&#xe2;" d="M61 0h287v389h703v-389h286v864q0 20 -16 49t-41 55.5t-53.5 44t-52.5 17.5h-949q-25 0 -53.5 -17.5t-53 -42t-41 -53t-16.5 -53.5v-864zM348 641v98h703v-98h-703zM348 1184h277l77 162l72 -162h277l-129 274h-445z" />
<glyph unicode="&#xe3;" d="M61 0h287v389h703v-389h286v864q0 20 -16 49t-41 55.5t-53.5 44t-52.5 17.5h-949q-25 0 -53.5 -17.5t-53 -42t-41 -53t-16.5 -53.5v-864zM215 1188h277l75 155l74 -155h444l129 274h-276l-76 -157l-74 157h-444zM348 641v98h703v-98h-703z" />
<glyph unicode="&#xe4;" d="M61 0h287v389h703v-389h286v864q0 20 -16 49t-41 55.5t-53.5 44t-52.5 17.5h-949q-25 0 -53.5 -17.5t-53 -42t-41 -53t-16.5 -53.5v-864zM348 641v98h703v-98h-703zM348 1184h277v272h-277v-272zM774 1184h277v272h-277v-272z" />
<glyph unicode="&#xe5;" d="M61 0h287v389h703v-389h286v864q0 20 -16 49t-41 55.5t-53.5 44t-52.5 17.5h-949q-25 0 -53.5 -17.5t-53 -42t-41 -53t-16.5 -53.5v-864zM348 641v98h703v-98h-703zM563 1184h277v272h-277v-272z" />
<glyph unicode="&#xe6;" horiz-adv-x="2267" d="M61 0h287v389h703v-389h1155v272h-826q-23 0 -32 10.5t-11 26.5v23q2 16 5.5 32.5t3.5 26.5h860v250h-860q0 10 -3.5 23.5t-5.5 29.5v11q0 25 8.5 40t34.5 15h826v270h-1981q-25 0 -53.5 -17.5t-53 -42t-41 -53t-16.5 -53.5v-864zM348 641v98h703v-98h-703z" />
<glyph unicode="&#xe7;" d="M61 166q0 -25 16.5 -53.5t41 -53t53.5 -42t53 -17.5h406v-96h-207v-250h453v346h297q25 0 53 16.5t53 42t41 54t16 53.5v235h-286v-110h-703v448h703v-110h286v235q0 25 -16 54.5t-41 54t-53.5 41t-52.5 16.5h-949q-25 0 -53.5 -17.5t-53 -42t-41 -53t-16.5 -53.5v-698z " />
<glyph unicode="&#xe8;" horiz-adv-x="1277" d="M61 166v698q0 25 16.5 53.5t41 53t53.5 42t53 17.5h992v-270h-826q-27 0 -35 -15.5t-8 -39.5q0 -16 4 -35t4 -29h861v-250h-861q0 -10 -4 -30.5t-4 -38.5q0 -23 8.5 -36.5t34.5 -13.5h826v-272h-992q-25 0 -53.5 16.5t-53 42t-41 54t-16.5 53.5zM442 1464h277l129 -274 h-277z" />
<glyph unicode="&#xe9;" horiz-adv-x="1277" d="M61 166q0 -25 16.5 -53.5t41 -54t53.5 -42t53 -16.5h992v272h-826q-27 0 -35 13.5t-8 36.5q0 18 4 38.5t4 30.5h861v250h-861q0 10 -4 28.5t-4 35.5q0 25 8.5 40t34.5 15h826v270h-992q-25 0 -53.5 -17.5t-53 -42t-41 -53t-16.5 -53.5v-698zM500 1186h276l129 274h-276z " />
<glyph unicode="&#xea;" horiz-adv-x="1277" d="M61 166q0 -25 16.5 -53.5t41 -54t53.5 -42t53 -16.5h992v272h-826q-27 0 -35 13.5t-8 36.5q0 18 4 38.5t4 30.5h861v250h-861q0 10 -4 28.5t-4 35.5q0 25 8.5 40t34.5 15h826v270h-992q-25 0 -53.5 -17.5t-53 -42t-41 -53t-16.5 -53.5v-698zM295 1184h276l78 162l72 -162 h276l-129 274h-444z" />
<glyph unicode="&#xeb;" horiz-adv-x="1277" d="M61 166q0 -25 16.5 -53.5t41 -54t53.5 -42t53 -16.5h992v272h-826q-27 0 -35 13.5t-8 36.5q0 18 4 38.5t4 30.5h861v250h-861q0 10 -4 28.5t-4 35.5q0 25 8.5 40t34.5 15h826v270h-992q-25 0 -53.5 -17.5t-53 -42t-41 -53t-16.5 -53.5v-698zM295 1182h276v272h-276v-272z M721 1182h276v272h-276v-272z" />
<glyph unicode="&#xec;" horiz-adv-x="393" d="M-6 1458l129 -274h276l-129 274h-276zM61 0h271v1030h-271v-1030z" />
<glyph unicode="&#xed;" horiz-adv-x="393" d="M-4 1182h276l129 274h-276zM61 0h271v1030h-271v-1030z" />
<glyph unicode="&#xee;" horiz-adv-x="393" d="M-145 1180h276l78 161l72 -161h276l-129 274h-444zM61 0h271v1030h-271v-1030z" />
<glyph unicode="&#xef;" horiz-adv-x="393" d="M-145 1182h276v272h-276v-272zM61 0h271v1030h-271v-1030zM281 1182h276v272h-276v-272z" />
<glyph unicode="&#xf0;" d="M59 166v235q0 39 5.5 81t19.5 77t38.5 58.5t63.5 23.5h863v121h-990v268h1112q25 0 53.5 -17.5t53.5 -42t41 -53t16 -53.5v-698q0 -25 -16 -53.5t-41 -53t-53.5 -42t-53.5 -17.5h-954q-29 0 -57.5 16.5t-51 41t-36 53t-13.5 55.5zM350 328q2 -27 17 -37h682v102h-654 q-45 -14 -45 -65z" />
<glyph unicode="&#xf1;" d="M61 0h267v637q55 -35 121.5 -96.5t138 -133t144.5 -145.5t141.5 -134t128 -98t106.5 -38h25q33 0 68.5 4t66 18.5t50 38t19.5 64.5v901h-266v-633q-33 18 -89 71.5t-126 123t-147.5 146.5t-152.5 142.5t-143.5 110.5t-119.5 51q-2 2 -17 2h-16q-41 0 -77 -10t-62.5 -27.5 t-43 -41t-16.5 -50.5v-903zM215 1188h277l75 155l74 -155h444l129 274h-276l-76 -157l-74 157h-444z" />
<glyph unicode="&#xf2;" d="M61 166q0 -14 8.5 -31.5t19.5 -36t25.5 -34t26.5 -23.5q14 -16 44 -28.5t40 -12.5h949q25 0 53 16.5t53 42t41 54t16 53.5v698q0 25 -16 53.5t-41 53t-53.5 42t-52.5 17.5h-949q-25 0 -53.5 -17.5t-53 -42t-41 -53t-16.5 -53.5v-698zM348 291v448h703v-448h-703z M455 1460l129 -274h276l-129 274h-276z" />
<glyph unicode="&#xf3;" d="M61 166q0 -14 8.5 -31.5t19.5 -36t25.5 -34t26.5 -23.5q14 -16 44 -28.5t40 -12.5h949q25 0 53 16.5t53 42t41 54t16 53.5v698q0 25 -16 53.5t-41 53t-53.5 42t-52.5 17.5h-949q-25 0 -53.5 -17.5t-53 -42t-41 -53t-16.5 -53.5v-698zM348 291v448h703v-448h-703z M547 1184h276l129 274h-276z" />
<glyph unicode="&#xf4;" d="M61 166q0 -14 8.5 -31.5t19.5 -36t25.5 -34t26.5 -23.5q14 -16 44 -28.5t40 -12.5h949q25 0 53 16.5t53 42t41 54t16 53.5v698q0 25 -16 53.5t-41 53t-53.5 42t-52.5 17.5h-949q-25 0 -53.5 -17.5t-53 -42t-41 -53t-16.5 -53.5v-698zM348 291v448h703v-448h-703z M348 1184h277l77 162l72 -162h277l-129 274h-445z" />
<glyph unicode="&#xf5;" d="M61 166q0 -14 8.5 -31.5t19.5 -36t25.5 -34t26.5 -23.5q14 -16 44 -28.5t40 -12.5h949q25 0 53 16.5t53 42t41 54t16 53.5v698q0 25 -16 53.5t-41 53t-53.5 42t-52.5 17.5h-949q-25 0 -53.5 -17.5t-53 -42t-41 -53t-16.5 -53.5v-698zM215 1188h277l75 155l74 -155h444 l129 274h-276l-76 -157l-74 157h-444zM348 291v448h703v-448h-703z" />
<glyph unicode="&#xf6;" d="M61 166q0 -14 8.5 -31.5t19.5 -36t25.5 -34t26.5 -23.5q14 -16 44 -28.5t40 -12.5h949q25 0 53 16.5t53 42t41 54t16 53.5v698q0 25 -16 53.5t-41 53t-53.5 42t-52.5 17.5h-949q-25 0 -53.5 -17.5t-53 -42t-41 -53t-16.5 -53.5v-698zM348 291v448h703v-448h-703z M348 1184h277v272h-277v-272zM774 1184h277v272h-277v-272z" />
<glyph unicode="&#xf7;" horiz-adv-x="1062" d="M61 393h940v248h-940v-248zM393 76h271v272h-271v-272zM393 686h271v272h-271v-272z" />
<glyph unicode="&#xf8;" d="M59 166v698q0 25 16.5 53.5t41 53t53.5 42t53 17.5h948q25 0 53.5 -17.5t53.5 -42t41 -53t16 -53.5v-698q0 -14 -8 -31.5t-19.5 -36t-26 -34t-26.5 -23.5q-14 -16 -43.5 -28.5t-40.5 -12.5h-948q-25 0 -53.5 16.5t-53 42t-41 54t-16.5 53.5zM346 291h381l-375 448h-6 v-448zM678 739l371 -446v446h-371z" />
<glyph unicode="&#xf9;" d="M61 166q0 -25 16.5 -53.5t41 -53t53.5 -42t53 -17.5h949q25 0 53 16.5t53 42t41 54t16 53.5v864h-286v-739h-703v739h-287v-864zM455 1460l129 -274h276l-129 274h-276z" />
<glyph unicode="&#xfa;" d="M61 166q0 -25 16.5 -53.5t41 -53t53.5 -42t53 -17.5h949q25 0 53 16.5t53 42t41 54t16 53.5v864h-286v-739h-703v739h-287v-864zM547 1184h276l129 274h-276z" />
<glyph unicode="&#xfb;" d="M61 166v864h287v-739h703v739h286v-864q0 -25 -16 -53.5t-41 -54t-53.5 -42t-52.5 -16.5h-949q-25 0 -53.5 17.5t-53 42t-41 53t-16.5 53.5zM348 1184l129 274h445l129 -274h-277l-72 162l-77 -162h-277z" />
<glyph unicode="&#xfc;" d="M61 166v864h287v-739h703v739h286v-864q0 -25 -16 -53.5t-41 -54t-53.5 -42t-52.5 -16.5h-949q-25 0 -53.5 17.5t-53 42t-41 53t-16.5 53.5zM348 1184v272h277v-272h-277zM774 1184v272h277v-272h-277z" />
<glyph unicode="&#xfd;" horiz-adv-x="1376" d="M61 522q2 -20 17.5 -41.5t37 -40t45 -32t44.5 -17.5h770q45 -12 45 -63q-4 -20 -13.5 -34.5t-31.5 -21.5h-903v-272h1112q45 0 70.5 23.5t39 59.5t17.5 79t4 82v786h-273v-389h-659q-43 8 -43 61v328h-279v-508zM547 1184h276l129 274h-276z" />
<glyph unicode="&#xfe;" horiz-adv-x="1277" d="M61 0h267v180h802q45 16 63.5 44t23.5 63v446q-6 12 -10.5 24.5t-12.5 25t-22.5 21.5t-41.5 15h-800v211h-269v-481h826q23 -10 30 -22.5t7 -34.5q0 -20 -6.5 -41t-32.5 -21h-824v-430z" />
<glyph unicode="&#xff;" horiz-adv-x="1376" d="M61 522q2 -20 17.5 -41.5t37 -40t45 -32t44.5 -17.5h770q45 -12 45 -63q-4 -20 -13.5 -34.5t-31.5 -21.5h-903v-272h1112q45 0 70.5 23.5t39 59.5t17.5 79t4 82v786h-273v-389h-659q-43 8 -43 61v328h-279v-508zM348 1184h277v272h-277v-272zM774 1184h277v272h-277v-272 z" />
<glyph unicode="&#x152;" horiz-adv-x="2420" d="M61 166q0 -25 16.5 -53.5t41 -53t53.5 -42t53 -17.5h949q23 0 48 13.5t48 35.5q23 -23 49.5 -36t48.5 -13h991v272h-825q-27 0 -35 13.5t-8 36.5q0 18 4 38.5t4 30.5h860v250h-860q0 10 -4 28.5t-4 35.5q0 25 8 40t35 15h825v270h-991q-23 0 -48.5 -13t-47.5 -36 q-23 23 -49.5 36t-48.5 13h-949q-25 0 -53.5 -17.5t-53 -42t-41 -53t-16.5 -53.5v-698zM348 291v448h703v-110h153v-228h-153v-110h-703z" />
<glyph unicode="&#x153;" horiz-adv-x="2420" d="M61 166q0 -25 16.5 -53.5t41 -53t53.5 -42t53 -17.5h949q23 0 48 13.5t48 35.5q23 -23 49.5 -36t48.5 -13h991v272h-825q-27 0 -35 13.5t-8 36.5q0 18 4 38.5t4 30.5h860v250h-860q0 10 -4 28.5t-4 35.5q0 25 8 40t35 15h825v270h-991q-23 0 -48.5 -13t-47.5 -36 q-23 23 -49.5 36t-48.5 13h-949q-25 0 -53.5 -17.5t-53 -42t-41 -53t-16.5 -53.5v-698zM348 291v448h703v-110h153v-228h-153v-110h-703z" />
<glyph unicode="&#x178;" horiz-adv-x="1376" d="M61 522q2 -20 17.5 -41.5t37 -40t45 -32t44.5 -17.5h770q45 -12 45 -63q-4 -20 -13.5 -34.5t-31.5 -21.5h-903v-272h1112q45 0 70.5 23.5t39 59.5t17.5 79t4 82v786h-273v-389h-659q-43 8 -43 61v328h-279v-508zM348 1184h277v272h-277v-272zM774 1184h277v272h-277v-272 z" />
<glyph unicode="&#x2c6;" horiz-adv-x="825" d="M61 1184h277l78 162l71 -162h277l-129 274h-445z" />
<glyph unicode="&#x2dc;" horiz-adv-x="1122" d="M61 1188h277l76 155l73 -155h445l129 274h-277l-75 -157l-74 157h-445z" />
<glyph unicode="&#x2000;" horiz-adv-x="732" />
<glyph unicode="&#x2001;" horiz-adv-x="1464" />
<glyph unicode="&#x2002;" horiz-adv-x="732" />
<glyph unicode="&#x2003;" horiz-adv-x="1464" />
<glyph unicode="&#x2004;" horiz-adv-x="488" />
<glyph unicode="&#x2005;" horiz-adv-x="366" />
<glyph unicode="&#x2006;" horiz-adv-x="244" />
<glyph unicode="&#x2007;" horiz-adv-x="244" />
<glyph unicode="&#x2008;" horiz-adv-x="183" />
<glyph unicode="&#x2009;" horiz-adv-x="292" />
<glyph unicode="&#x200a;" horiz-adv-x="81" />
<glyph unicode="&#x2010;" horiz-adv-x="780" d="M61 391v250h658v-250h-658z" />
<glyph unicode="&#x2011;" horiz-adv-x="780" d="M61 391v250h658v-250h-658z" />
<glyph unicode="&#x2012;" horiz-adv-x="780" d="M61 391v250h658v-250h-658z" />
<glyph unicode="&#x2013;" horiz-adv-x="780" d="M61 391v250h658v-250h-658z" />
<glyph unicode="&#x2014;" horiz-adv-x="1062" d="M61 393h940v248h-940v-248z" />
<glyph unicode="&#x2018;" horiz-adv-x="393" d="M61 629h271v401h-109q-27 0 -55.5 -16.5t-52 -41t-39 -52t-15.5 -52.5v-239z" />
<glyph unicode="&#x2019;" horiz-adv-x="393" d="M61 629v401h271v-239q0 -25 -15.5 -52.5t-39 -52t-52 -41t-55.5 -16.5h-109z" />
<glyph unicode="&#x201a;" horiz-adv-x="393" d="M61 -199v471h271v-309q0 -25 -15.5 -52.5t-39 -52t-52 -41t-55.5 -16.5h-109z" />
<glyph unicode="&#x201c;" horiz-adv-x="720" d="M61 629h277v401h-115q-25 0 -53.5 -16.5t-52 -41t-40 -52t-16.5 -52.5v-239zM389 629h270v399h-108q-27 0 -55.5 -16.5t-52 -41t-39 -52t-15.5 -52.5v-237z" />
<glyph unicode="&#x201d;" horiz-adv-x="720" d="M61 631h109q27 0 55.5 16.5t52 41t39 52t15.5 52.5v237h-271v-399zM383 629h115q25 0 53.5 16.5t52 41t39.5 52t16 52.5v239h-276v-401z" />
<glyph unicode="&#x201e;" horiz-adv-x="720" d="M61 -197h109q27 0 55.5 16.5t52 41t39 52.5t15.5 52v309h-271v-471zM389 -199h109q27 0 55.5 16.5t52 41t38.5 52.5t15 52v309h-270v-471z" />
<glyph unicode="&#x2022;" horiz-adv-x="1990" d="M61 166v864h269v-678l22 8q6 0 13.5 5.5t26 26t54 62.5t100 116.5t164 186t244.5 273.5h344q-190 -221 -329.5 -384t-237.5 -277.5t-161.5 -186t-103.5 -112.5t-63.5 -55.5t-40.5 -14.5h-81q-35 0 -74 12.5t-71 34t-53.5 52t-21.5 67.5zM692 0q182 217 316.5 377 t231.5 274.5t161.5 188t107.5 115.5t70 58.5t47 16.5h84q37 0 76 -12t70.5 -33.5t52 -52.5t20.5 -68v-864h-262v166h-477l-152 -166h-346zM1397 414h248v256l-9 3l-4 1q-14 0 -27.5 -14.5t-23.5 -24.5z" />
<glyph unicode="&#x2026;" horiz-adv-x="1179" d="M61 0h271v272h-271v-272zM455 0h270v272h-270v-272zM848 0h270v272h-270v-272z" />
<glyph unicode="&#x202f;" horiz-adv-x="292" />
<glyph unicode="&#x2039;" horiz-adv-x="397" d="M61 291l275 -129v276l-162 78l162 72v276l-275 -129v-444z" />
<glyph unicode="&#x203a;" horiz-adv-x="397" d="M61 162v276l162 78l-162 72v276l275 -129v-444z" />
<glyph unicode="&#x205f;" horiz-adv-x="366" />
<glyph unicode="&#x20ac;" horiz-adv-x="1384" d="M61 350h224v-184q0 -25 16 -53.5t41 -54t53.5 -42t53.5 -16.5h874v272h-709q-27 0 -35 13.5t-8 36.5v28h428v133h-428v62h428v133h-428v27q0 25 8.5 40t34.5 15h709v270h-874q-25 0 -53.5 -17.5t-53.5 -42t-41 -53t-16 -53.5v-186h-224v-133h224v-62h-224v-133z" />
<glyph unicode="&#x2122;" horiz-adv-x="2482" d="M61 686l209 19l-112 165l-17 76l213 -18l29 260q104 -80 162 -80q4 0 39 10l176 219l129 -112l295 168l33 -17l14 -112l424 73l-31 -131h438l-131 -110l375 -92l18 -39h-18l-164 -54l262 -153l17 -35l-209 -18q133 -170 133 -226q0 2 -1 -3t-3 -17l-215 41l-15 -264 l-210 79l-162 -225l-148 111l-325 -185l16 74l-51 74l-408 -92l49 129l-454 20l131 107l-391 98l180 94zM418 510l65 25l15 323l-52 -12zM528 655q0 -23 2 -24q27 -143 113 -144q10 0 24.5 5.5t34.5 9.5l-4 55q-14 -8 -55 -8q-61 0 -61 65q0 68 43 134q41 47 77 47 q10 0 15.5 -1t15.5 -8l6 80q-211 -37 -211 -192v-19zM760 567q18 -55 98 -55q23 0 47 6q86 1 113 230q-25 109 -121 108h-16q2 0 0 -1t-13 -1q-109 -74 -108 -287zM815 653v23q37 104 84 104q37 0 55 -43q9 -8 9 -37q0 -53 -25 -98q-53 -29 -76 -29q-47 0 -47 80zM1049 842 l6 -332l45 10v156q104 -158 176 -158v324l-51 16l-8 -227zM1329 526l70 23l14 323l-55 -14zM1446 545h59q37 76 72 76q41 0 68 -76l38 -15l-6 246q-23 102 -73 103q-31 0 -39 -9q-102 -164 -119 -325zM1536 692l57 111l35 -111h-92zM1729 852l6 -326l43 4v162 q108 -164 176 -164v326l-49 18l-13 -229zM1995 498l35 -39l47 51l-43 20zM2021 621l47 -9l35 240l-69 20z" />
<glyph unicode="&#x25fc;" horiz-adv-x="1034" d="M0 0v1034h1034v-1034h-1034z" />
</font>
</defs>
</svg>
